<?xml version="1.0" encoding="UTF-8"?> <svg xmlns="http://www.w3.org/2000/svg" width="44" height="44" viewBox="0 0 44 44" fill="none"> <path d="M21.9993 31.1667C22.5188 31.1667 22.9545 30.9907 23.3065 30.6387C23.6573 30.288 23.8327 29.8529 23.8327 29.3334V23.8334H29.3785C29.898 23.8334 30.3257 23.6574 30.6618 23.3054C30.998 22.9546 31.166 22.5195 31.166 22.0001C31.166 21.4806 30.99 21.0449 30.638 20.6929C30.2872 20.3421 29.8521 20.1667 29.3327 20.1667H23.8327V14.6209C23.8327 14.1015 23.6573 13.6737 23.3065 13.3376C22.9545 13.0015 22.5188 12.8334 21.9993 12.8334C21.4799 12.8334 21.0448 13.0088 20.694 13.3596C20.342 13.7116 20.166 14.1473 20.166 14.6667V20.1667H14.6202C14.1007 20.1667 13.673 20.3421 13.3368 20.6929C13.0007 21.0449 12.8327 21.4806 12.8327 22.0001C12.8327 22.5195 13.0081 22.9546 13.3588 23.3054C13.7108 23.6574 14.1466 23.8334 14.666 23.8334H20.166V29.3792C20.166 29.8987 20.342 30.3265 20.694 30.6626C21.0448 30.9987 21.4799 31.1667 21.9993 31.1667V31.1667ZM21.9993 40.3334C19.4632 40.3334 17.0799 39.8519 14.8493 38.8887C12.6188 37.9269 10.6785 36.6209 9.02852 34.9709C7.37852 33.3209 6.07257 31.3806 5.11068 29.1501C4.14757 26.9195 3.66602 24.5362 3.66602 22.0001C3.66602 19.464 4.14757 17.0806 5.11068 14.8501C6.07257 12.6195 7.37852 10.6792 9.02852 9.02925C10.6785 7.37925 12.6188 6.07269 14.8493 5.10958C17.0799 4.14769 19.4632 3.66675 21.9993 3.66675C24.5355 3.66675 26.9188 4.14769 29.1493 5.10958C31.3799 6.07269 33.3202 7.37925 34.9702 9.02925C36.6202 10.6792 37.9261 12.6195 38.888 14.8501C39.8511 17.0806 40.3327 19.464 40.3327 22.0001C40.3327 24.5362 39.8511 26.9195 38.888 29.1501C37.9261 31.3806 36.6202 33.3209 34.9702 34.9709C33.3202 36.6209 31.3799 37.9269 29.1493 38.8887C26.9188 39.8519 24.5355 40.3334 21.9993 40.3334ZM21.9993 36.6667C26.0632 36.6667 29.524 35.2386 32.3815 32.3822C35.2378 29.5247 36.666 26.064 36.666 22.0001C36.666 17.9362 35.2378 14.4755 32.3815 11.6179C29.524 8.76158 26.0632 7.33341 21.9993 7.33341C17.9355 7.33341 14.4753 8.76158 11.619 11.6179C8.76146 14.4755 7.33268 17.9362 7.33268 22.0001C7.33268 26.064 8.76146 29.5247 11.619 32.3822C14.4753 35.2386 17.9355 36.6667 21.9993 36.6667Z" fill="#2F2F2F"></path> </svg> 